# xmcd
#
# Track frame offsets: 
#        183
#        11988
#        24885
#        34940
#        46908
#        57483
#        71733
#        85998
#        99420
#        110970
#        123063
#        138290
#        146390
#        157190
#
# Disc length: 2301 seconds
#
# Revision: 0
# Processed by: cddbd v1.5.2PL0 Copyright (c) Steve Scherf et al.
# Submitted via: ExactAudioCopy v0.90b4
#
DISCID=c208fb0e
DTITLE=WADIM BRODSKI - Beatles Symphony
DYEAR=1988
DGENRE=Classical
TTITLE0=Yesterday
TTITLE1=Here, There And Everywhere
TTITLE2=Eleanor Rigby
TTITLE3=And I Love Her
TTITLE4=Norwegian Wood
TTITLE5=Julia
TTITLE6=Across The Universe
TTITLE7=Michelle
TTITLE8=If I Fell
TTITLE9=When I'm Sixty-Four
TTITLE10=Beacuse
TTITLE11=Lucy In The Sky With Diamonds
TTITLE12=The Fool On The Hill
TTITLE13=She's Leaving Home
EXTD=
EXTT0=
EXTT1=
EXTT2=
EXTT3=
EXTT4=
EXTT5=
EXTT6=
EXTT7=
EXTT8=
EXTT9=
EXTT10=
EXTT11=
EXTT12=
EXTT13=
PLAYORDER=
